<?xml version="1.0" encoding="UTF-8"?>
<svg id="_レイヤー_1" data-name="レイヤー 1" xmlns="http://www.w3.org/2000/svg" xmlns:xlink="http://www.w3.org/1999/xlink" viewBox="0 0 325 331">
  <defs>
    <style>
      .cls-1 {
        fill: url(#_名称未設定グラデーション_6);
      }

      .cls-1, .cls-2 {
        stroke-width: 0px;
      }

      .cls-2 {
        fill: #419259;
      }
    </style>
    <linearGradient id="_名称未設定グラデーション_6" data-name="名称未設定グラデーション 6" x1="10.08" y1="167" x2="318.42" y2="167" gradientUnits="userSpaceOnUse">
      <stop offset="0" stop-color="#eeffbf"/>
      <stop offset=".49" stop-color="#419259"/>
      <stop offset="1" stop-color="#a8c66f"/>
    </linearGradient>
  </defs>
  <path class="cls-2" d="m306.44,122.88c-1.12-.18-2.26-.28-3.43-.28-3.86,0-7.55,1.03-10.77,2.95-.04-.02-.09-.05-.13-.07l-.02-.06c-12.85-42.18-45.43-76-87.15-90.46l-.09-.03c1.68-3.02,2.63-6.5,2.63-10.19,0-1.5-.16-2.96-.46-4.37l.61.2c47.58,15.73,84.46,53.79,98.66,101.81l.15.5Z"/>
  <path class="cls-2" d="m168.83,13.12c-1.66,2.5-2.81,5.37-3.27,8.46-2.64,1.68-5.53,3.59-8.66,5.77-34.39.65-67.02,13.94-92.16,37.59l-.74-.57c-2.6-3.9-6.47-6.84-10.91-8.32h-.01s.43-.42.43-.42C82.17,28.03,119.84,12.83,159.58,12.83c2.71,0,5.52.08,8.59.25l.66.04Z"/>
  <path class="cls-2" d="m312.59,165.83c0,2.39-.06,4.84-.19,7.48l-.02.46c-2.82-1.41-6.01-2.2-9.37-2.2-1.73,0-3.44.21-5.08.62v-.25c.08-1.66.17-3.86.17-6.11,0-.25,0-.5-.02-.75-.01-.24-.02-.48-.02-.72v-.19c1.59.39,3.25.59,4.95.59,3.42,0,6.64-.82,9.5-2.27v.53c.02.37.03.75.04,1.12.02.56.04,1.13.04,1.69Z"/>
  <path class="cls-2" d="m39.86,96.22c-12.29,21.09-18.79,45.16-18.79,69.61,0,9.46.98,18.92,2.9,28.19h0c-.95,1.99-1.89,3.98-2.83,5.99-3.6.76-6.87,2.45-9.54,4.8l-.14-.53c-3.24-12.5-4.88-25.44-4.88-38.45,0-27.62,7.46-54.72,21.59-78.36l.29-.49c2.59,4.26,6.66,7.54,11.48,9.11l-.08.13Z"/>
  <path class="cls-2" d="m109.35,309.26c0,.38.01.75.03,1.12l-.39-.14c-34.53-12.1-63.66-36.29-82-68.1l-.27-.46c5.17-.29,9.85-2.46,13.36-5.84l.1.17c16.55,28.11,42.55,49.56,73.18,60.4l.31.11c-2.77,3.62-4.32,8.09-4.32,12.74Z"/>
  <path class="cls-2" d="m304.93,213.64l-.14.43c-8.48,25.51-23.65,48.47-43.88,66.37l-.42.37c-1.24-4.93-4.21-9.17-8.23-12.04l.13-.12c17.57-15.88,30.86-36.11,38.42-58.51l.09-.25c3.43,2.42,7.61,3.84,12.11,3.84.65,0,1.29-.03,1.92-.09Z"/>
  <path class="cls-2" d="m227.56,302.92l-.5.25c-21.13,10.4-43.83,15.67-67.48,15.67-2.96,0-6.07-.11-9.77-.34l-.42-.03c1.36-2.78,2.12-5.91,2.12-9.21,0-1.78-.23-3.53-.67-5.22l.31.02c3.14.19,5.89.28,8.43.28,19.86,0,38.99-4.1,56.9-12.19,1.27.4,2.54.79,3.81,1.15,1.45,3.89,4,7.23,7.27,9.62Z"/>
  <path class="cls-1" d="m303.01,177.24c-3.08,0-6.02.9-8.56,2.61-7.05-5.15-21.4-14.52-43.03-23.54-9.18-3.83-18.61-7.04-28.05-9.57,12.1-10.8,22.63-17.93,29.65-22.15,11.6,5.28,23.25,11.16,34.67,17.49-.06.55-.09,1.08-.09,1.59,0,8.5,6.91,15.41,15.41,15.41s15.41-6.91,15.41-15.41-6.91-15.41-15.41-15.41c-3.88,0-7.51,1.42-10.35,4.01-40.66-22.98-83.78-39.84-128.19-50.15-.24-3.51-1.7-6.85-4.1-9.44,6.68-11.55,13.96-22.71,21.66-33.19,1.44.43,2.91.65,4.38.65,8.5,0,15.41-6.91,15.41-15.41s-6.91-15.41-15.41-15.41-15.41,6.91-15.41,15.41c0,.04,0,.09,0,.13-11.62,7.16-29.46,19.75-49.97,39.75-2.15-1.08-4.52-1.65-6.91-1.65-6.02,0-11.52,3.58-14.01,9.02-13.51-1.12-26.68-1.57-39.19-1.33-2.23-5.95-8.01-10.02-14.43-10.02-8.5,0-15.41,6.91-15.41,15.41s6.91,15.41,15.41,15.41c5.92,0,11.25-3.35,13.83-8.62,12.6-.26,25.88.18,39.51,1.3.26.65.57,1.28.91,1.89-29.19,33.26-54.67,73.35-75.76,119.21-8.26.27-14.89,7.08-14.89,15.4s6.91,15.41,15.41,15.41,15.41-6.91,15.41-15.41c0-2.82-.76-5.55-2.2-7.94,20.61-46.24,45.32-86.28,73.47-119.04.67.09,1.31.13,1.95.13,5.07,0,9.72-2.44,12.61-6.57,2.61.38,5.25.79,7.89,1.23.44,1.2,1.02,2.34,1.75,3.41-24.94,50.43-47.64,126.69-15.73,205.53-3.53,2.92-5.61,7.28-5.61,11.88,0,8.5,6.91,15.41,15.41,15.41s15.41-6.91,15.41-15.41c0-4.56-2.07-8.92-5.57-11.84,3.45-16.7,8.12-32.88,13.91-48.14,14.38,12.45,30.55,23.17,45.75,30.32,8.11,3.81,16.5,6.87,24.95,9.08,1.31,7.29,7.66,12.67,15.16,12.67,8.5,0,15.41-6.91,15.41-15.41s-6.91-15.41-15.41-15.41c-5.14,0-9.96,2.6-12.8,6.85-9.24-2.06-16.81-4.52-23.11-7.5-15.48-7.32-31.6-18.53-45.5-31.62,13.58-31.8,32.2-59.6,55.35-82.66,11.15,2.37,22.37,5.89,33.37,10.48,19.46,8.12,32.78,16.82,40.7,22.88-.3,1.21-.45,2.44-.45,3.69,0,8.5,6.91,15.41,15.41,15.41s15.41-6.91,15.41-15.41-6.91-15.41-15.41-15.41Zm-174.51.19c6.75-16.18,26.87-25.27,54.29-25.27,4.96,0,10.18.3,15.58.91-20.33,21.45-37.17,46.53-50.09,74.61-17.66-19.81-24.86-38.05-19.78-50.24Zm20.89-109.65c-.1,0-.2,0-.3,0-5.92,0-11.22,3.33-13.81,8.58-1.98-.33-3.98-.64-6.07-.95-.01-.07-.03-.14-.04-.21,11.4-11.52,23.08-21.7,34.84-30.35-5.12,7.44-10.02,15.13-14.62,22.94Zm-22.6,85.75c4.67-18.29,11.41-36.8,20.06-55.1,5.25.78,10.28-1.14,13.69-4.94,26.68,5.98,53.16,14.44,78.77,25.14-6.73,4.3-18.09,12.32-31.15,24.67-33.76-6.28-63.69-2.45-81.37,10.24Zm16.5,85.65c-5.5,13.41-10.16,27.54-13.87,42.08-7.59-23.44-11.1-47.93-10.44-72.94,5.63,9.96,13.94,20.52,24.3,30.86Z"/>
  <g>
    <circle class="cls-2" cx="209.73" cy="59.72" r="9.33"/>
    <circle class="cls-2" cx="231.3" cy="77.8" r="6.41"/>
    <circle class="cls-2" cx="256.44" cy="226.5" r="9.33"/>
    <circle class="cls-2" cx="244.96" cy="252.19" r="6.41"/>
  </g>
</svg>